<svg width="100" height="100" viewBox="0 0 100 100" xmlns="http://www.w3.org/2000/svg">
  <path d="M47.9999 65.4999C46.0001 66.0001 44.9998 67.9999 44.9998 69.9998C44.9998 72.4998 46.9996 74.9998 49.9998 74.9998C52.9999 74.9998 54.9998 72.9999 54.9998 69.9998C54.9998 66.0001 51.0001 63.9994 47.9999 65.4999Z" fill="currentColor"/>
  <path d="M50 25C46.9998 25 45 26.9998 45 30V55C45 58.0002 46.9998 60 50 60C53.0002 60 55 58.0002 55 55V30C55 26.9998 53.0002 25 50 25Z" fill="currentColor"/>
  <path d="M50 0C22.5 0 0 22.5 0 50C0 77.5 22.5 100 50 100C77.5 100 100 77.5 100 50C100 22.5 77.5 0 50 0ZM50 90C28 90 10 72 10 50C10 28 28 10 50 10C72 10 90 28 90 50C90 72 72 90 50 90Z" fill="currentColor"/>
</svg>
