<svg width="79" height="100" viewBox="0 0 79 100" xmlns="http://www.w3.org/2000/svg">
  <path d="M77.6757 22.973C77.6757 21.4595 76.9185 20.1624 75.5137 19.5131L40.4867 0.810618C39.2974 0.162086 37.784 0.162086 36.5948 0.810618L2.75694 19.4052C1.45988 20.0537 0.594971 21.4595 0.594971 22.8651V49.2434C0.594971 70.1083 13.027 89.0272 32.0544 97.2434L36.7027 99.2977C37.2434 99.5141 37.7841 99.5141 38.324 99.5141C38.8647 99.5141 39.4054 99.4063 39.9453 99.2977L45.2428 97.027C64.8104 88.9189 77.5671 69.8919 77.5671 48.7027V22.973H77.6757ZM69.6761 48.8108C69.6761 66.6483 58.9732 82.8649 42.4328 89.7838L38.5409 91.4051L35.5139 90.0002C19.4056 82.9736 8.81119 66.8651 8.81119 49.3516V25.3516L38.8652 8.81102L69.6761 25.3516V48.8108Z"/>
</svg>
